<svg version="1.1" xmlns="http://www.w3.org/2000/svg" xmlns:xlink="http://www.w3.org/1999/xlink" x="0px" y="0px"
	 width="436.1px" height="417.932px" viewBox="31.95 41.034 436.1 417.932" enable-background="new 31.95 41.034 436.1 417.932"
	 xml:space="preserve">
<path fill="#FAB117" d="M250,41.034c-8.091,0-14.808,5.448-16.902,12.901l-42.882,132.467H49.392
	c-9.724,0-17.442,8.456-17.442,18.26c0,5.999,2.997,11.357,7.54,14.542c2.814,1.907,113.747,82.948,113.747,82.948
	s-42.605,130.835-43.431,132.921c-0.63,1.907-1.083,4.001-1.083,6.175c0,9.812,7.897,17.718,17.622,17.718
	c3.726,0,7.178-1.181,10.087-3.175L250,373.106c0,0,111.023,80.864,113.568,82.685c2.899,1.994,6.361,3.175,10.078,3.175
	c9.726,0,17.631-7.994,17.631-17.718c0-2.174-0.45-4.268-1.092-6.175c-0.815-2.086-43.422-132.921-43.422-132.921
	s110.924-81.042,113.744-82.948c4.543-3.185,7.542-8.543,7.542-14.63c0-9.717-7.542-18.172-17.267-18.172H309.961L266.893,53.935
	C264.811,46.482,258.081,41.034,250,41.034z"/>
</svg>
